<?xml version="1.0" standalone="no"?>
<!DOCTYPE svg PUBLIC "-//W3C//DTD SVG 20010904//EN"
 "http://www.w3.org/TR/2001/REC-SVG-20010904/DTD/svg10.dtd">
<svg version="1.0" xmlns="http://www.w3.org/2000/svg"
 width="512.000000pt" height="512.000000pt" viewBox="0 0 512.000000 512.000000"
 preserveAspectRatio="xMidYMid meet">
<metadata>
Created by potrace 1.11, written by Peter Selinger 2001-2013
</metadata>
<g transform="translate(0.000000,512.000000) scale(0.100000,-0.100000)"
fill="#000000" stroke="none">
<path d="M2350 4784 c-86 -12 -238 -39 -321 -59 -253 -59 -608 -231 -834 -404
-395 -302 -686 -737 -804 -1198 -53 -209 -66 -319 -66 -578 0 -207 7 -302 31
-428 9 -45 18 -93 21 -107 15 -85 78 -282 124 -390 64 -150 184 -356 268 -460
74 -91 87 -107 166 -186 127 -128 271 -241 410 -322 86 -50 305 -151 400 -185
173 -63 416 -116 610 -134 44 -4 172 -8 285 -8 250 0 369 9 545 41 163 29 199
37 349 81 373 108 675 282 947 545 l57 55 -30 33 c-16 19 -77 85 -136 148 -59
63 -121 130 -138 149 l-32 33 -78 -67 c-319 -275 -697 -453 -1059 -498 -27 -4
-61 -9 -75 -12 -47 -9 -455 -11 -535 -2 -713 80 -1226 465 -1445 1084 -70 199
-99 404 -95 665 2 102 6 200 9 218 3 18 8 52 11 75 20 139 83 341 155 494 210
446 599 766 1078 887 56 15 124 29 150 32 26 3 66 9 89 13 71 14 401 10 518
-5 525 -69 905 -298 1135 -685 75 -126 144 -313 175 -479 27 -141 26 -480 0
-625 -40 -213 -134 -408 -247 -511 -74 -67 -173 -106 -274 -106 -120 -1 -173
45 -191 167 -20 127 -5 211 232 1333 3 12 7 34 10 50 3 15 8 34 10 42 2 8 7
31 10 50 3 19 10 49 14 66 5 17 6 36 2 41 -3 5 -119 9 -269 9 l-262 -1 -9 -35
c-5 -19 -17 -74 -27 -123 l-17 -87 -31 55 c-117 209 -369 306 -702 272 -295
-30 -599 -222 -798 -506 -98 -140 -192 -361 -231 -545 -49 -229 -37 -520 30
-716 25 -73 97 -218 125 -248 8 -9 32 -38 53 -64 85 -106 268 -212 402 -234
17 -2 55 -9 85 -14 87 -14 274 -4 365 19 174 45 351 166 476 323 23 29 46 53
52 53 6 0 16 -29 23 -65 44 -214 261 -344 558 -335 268 9 485 88 681 251 262
216 440 576 483 973 14 133 5 562 -13 591 -2 3 -6 28 -10 55 -12 100 -59 256
-117 390 -213 487 -639 850 -1202 1026 -130 40 -317 81 -431 94 -33 4 -69 9
-80 12 -51 12 -486 10 -585 -3z m440 -1575 c100 -47 162 -117 204 -232 12 -34
23 -65 23 -70 31 -226 12 -417 -59 -597 -61 -157 -176 -298 -294 -362 -117
-63 -305 -74 -407 -24 -69 33 -139 105 -172 174 -96 202 -48 577 109 847 57
100 177 218 257 254 79 36 93 38 199 36 68 -1 96 -6 140 -26z"/>
</g>
</svg>
